<?xml version="1.0" encoding="UTF-8" standalone="no"?>
<!DOCTYPE svg PUBLIC "-//W3C//DTD SVG 1.1//EN" "http://www.w3.org/Graphics/SVG/1.1/DTD/svg11.dtd">
<svg width="100%" height="100%" viewBox="0 0 366 420" version="1.1" xmlns="http://www.w3.org/2000/svg" xmlns:xlink="http://www.w3.org/1999/xlink" xml:space="preserve" xmlns:serif="http://www.serif.com/" style="fill-rule:evenodd;clip-rule:evenodd;stroke-linecap:round;stroke-linejoin:round;stroke-miterlimit:1.5;">
    <g transform="matrix(1,0,0,1,-2085.08,-746.175)">
        <g transform="matrix(1,0,0,1,1830.54,-1115.72)">
            <g id="bulb" transform="matrix(1.05589,0,0,1.05589,-1140.88,-227.557)">
                <g transform="matrix(1.17113,0,0,1.18303,-384.725,-525.857)">
                    <path d="M1522.96,2338.11C1505.14,2318.61 1493.75,2291.85 1493.75,2263.54C1493.75,2243.33 1499.09,2225.2 1508.73,2208.92M1529.95,2182.41C1549.73,2164.54 1576.06,2153.63 1604.94,2153.63C1625.36,2153.63 1644.03,2158.76 1660.48,2168.26M1686.58,2189.14C1704.27,2208.6 1716.13,2235.34 1716.13,2263.54C1716.13,2283.81 1710.56,2302.27 1700.86,2318.58M1680.24,2344.4C1660.58,2361.72 1633.32,2373.45 1604.94,2373.45C1584.45,2373.45 1565.75,2368.23 1549.26,2358.66" style="fill:none;stroke:rgb(251,176,25);stroke-width:17.7px;"/>
                </g>
                <g transform="matrix(0.983415,0,0,1.0424,24.3806,-96.9561)">
                    <path d="M1451.92,2321.23L1537.97,2321.23" style="fill:none;stroke:rgb(251,176,25);stroke-width:19.63px;"/>
                </g>
                <g transform="matrix(0.785508,0,0,1.0424,320.417,-53.366)">
                    <path d="M1451.92,2321.23L1537.97,2321.23" style="fill:none;stroke:rgb(251,176,25);stroke-width:21.55px;"/>
                </g>
                <g transform="matrix(1.59027,1.59316,-1.59799,1.59509,2698.18,-3851.1)">
                    <path d="M1527.49,2255.55C1527.49,2311.11 1519.56,2356.21 1509.8,2356.21C1503.65,2356.21 1498.31,2338.41 1495.13,2311.28M1492.1,2255.55C1492.1,2199.99 1500.03,2154.89 1509.8,2154.89C1515.93,2154.89 1521.35,2172.7 1524.52,2199.73" style="fill:none;stroke:rgb(251,176,25);stroke-width:8.82px;"/>
                </g>
                <g transform="matrix(1.58636,-1.58636,1.59654,1.59654,-4501.44,945.954)">
                    <path d="M1527.49,2255.55C1527.49,2311.11 1519.56,2356.21 1509.8,2356.21C1503.65,2356.21 1498.31,2338.41 1495.13,2311.28M1492.1,2255.55C1492.1,2199.99 1500.03,2154.89 1509.8,2154.89C1515.93,2154.89 1521.35,2172.7 1524.52,2199.73" style="fill:none;stroke:rgb(251,176,25);stroke-width:8.84px;"/>
                </g>
            </g>
        </g>
    </g>
</svg>
