<?xml version="1.0" encoding="UTF-8" standalone="no"?>
<!DOCTYPE svg PUBLIC "-//W3C//DTD SVG 1.1//EN" "http://www.w3.org/Graphics/SVG/1.1/DTD/svg11.dtd">
<svg width="100%" height="100%" viewBox="0 0 399 633" version="1.1" xmlns="http://www.w3.org/2000/svg" xmlns:xlink="http://www.w3.org/1999/xlink" xml:space="preserve" xmlns:serif="http://www.serif.com/" style="fill-rule:evenodd;clip-rule:evenodd;stroke-linecap:round;stroke-linejoin:round;stroke-miterlimit:1.5;">
    <g transform="matrix(1,0,0,1,-242.226,-1861.89)">
        <g>
            <g id="bulb" transform="matrix(1.05589,0,0,1.05589,-1140.88,-227.557)">
                <g transform="matrix(1.17113,0,0,1.18303,-384.725,-525.857)">
                    <path d="M1522.96,2338.11C1505.14,2318.61 1493.75,2291.85 1493.75,2263.54C1493.75,2243.33 1499.09,2225.2 1508.73,2208.92M1529.95,2182.41C1549.73,2164.54 1576.06,2153.63 1604.94,2153.63C1625.36,2153.63 1644.03,2158.76 1660.48,2168.26M1686.58,2189.14C1704.27,2208.6 1716.13,2235.34 1716.13,2263.54C1716.13,2283.81 1710.56,2302.27 1700.86,2318.58M1680.24,2344.4C1660.58,2361.72 1633.32,2373.45 1604.94,2373.45C1584.45,2373.45 1565.75,2368.23 1549.26,2358.66" style="fill:none;stroke:white;stroke-width:17.7px;"/>
                </g>
                <g transform="matrix(0.983415,0,0,1.0424,24.3806,-96.9561)">
                    <path d="M1451.92,2321.23L1537.97,2321.23" style="fill:none;stroke:white;stroke-width:19.63px;"/>
                </g>
                <g transform="matrix(0.785508,0,0,1.0424,320.417,-53.366)">
                    <path d="M1451.92,2321.23L1537.97,2321.23" style="fill:none;stroke:white;stroke-width:21.55px;"/>
                </g>
                <g transform="matrix(1.59027,1.59316,-1.59799,1.59509,2698.18,-3851.1)">
                    <path d="M1527.49,2255.55C1527.49,2311.11 1519.56,2356.21 1509.8,2356.21C1503.65,2356.21 1498.31,2338.41 1495.13,2311.28M1492.1,2255.55C1492.1,2199.99 1500.03,2154.89 1509.8,2154.89C1515.93,2154.89 1521.35,2172.7 1524.52,2199.73" style="fill:none;stroke:white;stroke-width:8.82px;"/>
                </g>
                <g transform="matrix(1.58636,-1.58636,1.59654,1.59654,-4501.44,945.954)">
                    <path d="M1527.49,2255.55C1527.49,2311.11 1519.56,2356.21 1509.8,2356.21C1503.65,2356.21 1498.31,2338.41 1495.13,2311.28M1492.1,2255.55C1492.1,2199.99 1500.03,2154.89 1509.8,2154.89C1515.93,2154.89 1521.35,2172.7 1524.52,2199.73" style="fill:none;stroke:white;stroke-width:8.84px;"/>
                </g>
            </g>
            <g id="textcentered" transform="matrix(1,0,0,1,-1449.66,296.952)">
                <g id="MAXX" transform="matrix(0.616173,0,0,0.616173,638.023,775.525)">
                    <path d="M1710.33,2028.13L1768.33,2028.13L1790.71,2114.93L1812.99,2028.13L1870.79,2028.13L1870.79,2170.78L1834.79,2170.78L1834.79,2061.99L1806.86,2170.78L1774.26,2170.78L1746.43,2061.99L1746.43,2170.78L1710.33,2170.78L1710.33,2028.13ZM1984.14,2147.23L1933.93,2147.23L1927.03,2170.78L1881.97,2170.78L1935.59,2028.13L1983.66,2028.13L2037.27,2170.78L1991.15,2170.78L1984.14,2147.23ZM1974.9,2116.39L1959.14,2065.11L1943.47,2116.39L1974.9,2116.39ZM2047.09,2028.13L2095.65,2028.13L2120.95,2072.02L2145.47,2028.13L2193.54,2028.13L2149.17,2097.22L2197.72,2170.78L2148.19,2170.78L2120.07,2124.95L2091.85,2170.78L2042.62,2170.78L2091.85,2096.44L2047.09,2028.13ZM2207.1,2028.13L2255.66,2028.13L2280.96,2072.02L2305.48,2028.13L2353.55,2028.13L2309.18,2097.22L2357.73,2170.78L2308.2,2170.78L2280.08,2124.95L2251.86,2170.78L2202.63,2170.78L2251.86,2096.44L2207.1,2028.13Z" style="fill:white;fill-rule:nonzero;"/>
                </g>
                <g id="ENERGY" transform="matrix(0.481451,0,0,0.481451,910.903,1078.07)">
                    <path d="M1707.6,2219.57L1793.04,2219.57L1793.04,2241.73L1739.55,2241.73L1739.55,2258.23L1789.17,2258.23L1789.17,2279.41L1739.55,2279.41L1739.55,2299.88L1794.59,2299.88L1794.59,2323.39L1707.6,2323.39L1707.6,2219.57ZM1811.42,2219.57L1841.44,2219.57L1880.61,2277L1880.61,2219.57L1910.91,2219.57L1910.91,2323.39L1880.61,2323.39L1841.65,2266.38L1841.65,2323.39L1811.42,2323.39L1811.42,2219.57ZM1930.21,2219.57L2015.75,2219.57L2015.75,2241.73L1962.2,2241.73L1962.2,2258.23L2011.87,2258.23L2011.87,2279.41L1962.2,2279.41L1962.2,2299.88L2017.3,2299.88L2017.3,2323.39L1930.21,2323.39L1930.21,2219.57ZM2034.35,2323.39L2034.35,2219.57L2087.49,2219.57C2097.35,2219.57 2104.88,2220.42 2110.08,2222.12C2115.29,2223.82 2119.49,2226.97 2122.68,2231.57C2125.87,2236.17 2127.47,2241.78 2127.47,2248.39C2127.47,2254.15 2126.25,2259.12 2123.81,2263.3C2121.37,2267.48 2118.01,2270.86 2113.74,2273.46C2111.02,2275.11 2107.29,2276.48 2102.55,2277.57C2106.35,2278.84 2109.12,2280.12 2110.86,2281.39C2112.03,2282.24 2113.73,2284.06 2115.96,2286.85C2118.19,2289.63 2119.68,2291.78 2120.43,2293.29L2135.84,2323.39L2099.81,2323.39L2082.78,2291.66C2080.62,2287.55 2078.69,2284.89 2077.01,2283.66C2074.7,2282.05 2072.1,2281.25 2069.19,2281.25L2066.38,2281.25L2066.38,2323.39L2034.35,2323.39ZM2066.38,2261.63L2079.82,2261.63C2081.27,2261.63 2084.09,2261.16 2088.27,2260.22C2090.38,2259.79 2092.1,2258.71 2093.44,2256.96C2094.78,2255.21 2095.45,2253.21 2095.45,2250.94C2095.45,2247.59 2094.39,2245.01 2092.28,2243.22C2090.17,2241.43 2086.2,2240.53 2080.38,2240.53L2066.38,2240.53L2066.38,2261.63ZM2194.68,2285.78L2194.68,2264.18L2243.94,2264.18L2243.94,2308.45C2234.51,2314.91 2226.17,2319.32 2218.92,2321.65C2211.67,2323.99 2203.08,2325.16 2193.13,2325.16C2180.88,2325.16 2170.9,2323.06 2163.18,2318.86C2155.46,2314.65 2149.48,2308.4 2145.23,2300.09C2140.99,2291.78 2138.86,2282.24 2138.86,2271.48C2138.86,2260.15 2141.19,2250.29 2145.83,2241.91C2150.48,2233.53 2157.28,2227.17 2166.24,2222.83C2173.23,2219.47 2182.64,2217.8 2194.47,2217.8C2205.87,2217.8 2214.39,2218.84 2220.05,2220.91C2225.7,2222.99 2230.4,2226.21 2234.13,2230.58C2237.86,2234.95 2240.66,2240.48 2242.54,2247.19L2211.78,2252.71C2210.51,2248.79 2208.37,2245.79 2205.34,2243.72C2202.31,2241.64 2198.45,2240.6 2193.76,2240.6C2186.77,2240.6 2181.2,2243.04 2177.05,2247.93C2172.89,2252.82 2170.82,2260.55 2170.82,2271.12C2170.82,2282.36 2172.92,2290.39 2177.12,2295.2C2181.32,2300.02 2187.17,2302.43 2194.68,2302.43C2198.24,2302.43 2201.64,2301.91 2204.88,2300.87C2208.12,2299.83 2211.83,2298.06 2216,2295.56L2216,2285.78L2194.68,2285.78ZM2244.54,2219.57L2279.94,2219.57L2300.77,2254.62L2321.61,2219.57L2356.8,2219.57L2316.68,2279.91L2316.68,2323.39L2284.73,2323.39L2284.73,2279.91L2244.54,2219.57Z" style="fill:white;fill-rule:nonzero;"/>
                </g>
            </g>
        </g>
    </g>
</svg>
